<?xml version="1.0" encoding="utf-8"?>
<!-- Generator: Adobe Illustrator 21.1.0, SVG Export Plug-In . SVG Version: 6.00 Build 0)  -->
<svg version="1.1" id="Layer_1" xmlns="http://www.w3.org/2000/svg" xmlns:xlink="http://www.w3.org/1999/xlink" x="0px" y="0px"
	 viewBox="0 0 111.6 77" style="enable-background:new 0 0 111.6 77;" xml:space="preserve">
<style type="text/css">
	.st0{fill:#868e96;}
</style>
<path class="st0" d="M44.1,58h-3.2V45.5h3.2V58z M69.6,45.8c-0.3-0.1-1.4-0.4-2.9-0.4c-3.8,0-6.7,2.7-6.7,6.5c0,4,3.1,6.5,6.7,6.5
	c1.4,0,2.5-0.3,2.9-0.4v-3.4c-0.1,0.1-1.2,0.7-2.7,0.7c-2.1,0-3.5-1.5-3.5-3.3c0-1.9,1.4-3.3,3.5-3.3c1.5,0,2.5,0.6,2.7,0.7V45.8z
	 M36.6,45.8c-0.3-0.1-1.4-0.4-2.9-0.4c-3.8,0-6.7,2.7-6.7,6.5c0,4,3.1,6.5,6.7,6.5c1.4,0,2.5-0.3,2.9-0.4v-3.4
	c-0.1,0.1-1.2,0.7-2.7,0.7c-2.1,0-3.5-1.5-3.5-3.3c0-1.9,1.4-3.3,3.5-3.3c1.5,0,2.5,0.6,2.7,0.7V45.8z M79.5,45.3
	c-3.8,0-6.6,2.9-6.6,6.5c0,3.6,2.8,6.5,6.6,6.5c3.8,0,6.6-2.9,6.6-6.5C86.1,48.2,83.3,45.3,79.5,45.3z M82.8,51.8
	c0,1.8-1.4,3.3-3.3,3.3c-1.9,0-3.3-1.5-3.3-3.3c0-1.8,1.4-3.3,3.3-3.3C81.4,48.5,82.8,50,82.8,51.8z M56.1,45.7
	c-0.1,0-1.5-0.4-3.1-0.4c-2.9,0-4.7,1.6-4.7,3.9c0,2.1,1.5,3.1,3.2,3.7c0.2,0.1,0.5,0.2,0.7,0.2c0.8,0.2,1.4,0.6,1.4,1.2
	c0,0.7-0.7,1.2-2.3,1.2c-1.4,0-2.7-0.4-3-0.5v2.9c0.2,0,1.7,0.3,3.4,0.3c2.4,0,5.2-1.1,5.2-4.2c0-1.5-0.9-2.9-3-3.6l-0.9-0.3
	c-0.5-0.2-1.4-0.4-1.4-1.2c0-0.6,0.7-1,2-1c1.1,0,2.4,0.4,2.5,0.4V45.7z M23.7,32.1c0-0.9-0.7-1.6-1.6-1.6c-0.9,0-1.6,0.7-1.6,1.6
	v3.3c0,0.9,0.7,1.6,1.6,1.6c0.9,0,1.6-0.7,1.6-1.6V32.1z M32.3,27.8c0-0.9-0.7-1.6-1.6-1.6c-0.9,0-1.6,0.7-1.6,1.6v7.6
	c0,0.9,0.7,1.6,1.6,1.6c0.9,0,1.6-0.7,1.6-1.6V27.8z M40.9,21.9c0-0.9-0.7-1.6-1.6-1.6c-0.9,0-1.6,0.7-1.6,1.6v16.6
	c0,0.9,0.7,1.6,1.6,1.6c0.9,0,1.6-0.7,1.6-1.6V21.9z M49.5,27.8c0-0.9-0.7-1.6-1.6-1.6c-0.9,0-1.6,0.7-1.6,1.6v7.6
	c0,0.9,0.7,1.6,1.6,1.6c0.9,0,1.6-0.7,1.6-1.6V27.8z M58.1,32.1c0-0.9-0.7-1.6-1.6-1.6c-0.9,0-1.6,0.7-1.6,1.6v3.3
	c0,0.9,0.7,1.6,1.6,1.6c0.9,0,1.6-0.7,1.6-1.6V32.1z M66.8,27.8c0-0.9-0.7-1.6-1.6-1.6c-0.9,0-1.6,0.7-1.6,1.6v7.6
	c0,0.9,0.7,1.6,1.6,1.6c0.9,0,1.6-0.7,1.6-1.6V27.8z M75.4,21.9c0-0.9-0.7-1.6-1.6-1.6c-0.9,0-1.6,0.7-1.6,1.6v16.6
	c0,0.9,0.7,1.6,1.6,1.6c0.9,0,1.6-0.7,1.6-1.6V21.9z M84,27.8c0-0.9-0.7-1.6-1.6-1.6c-0.9,0-1.6,0.7-1.6,1.6v7.6
	c0,0.9,0.7,1.6,1.6,1.6c0.9,0,1.6-0.7,1.6-1.6V27.8z M92.6,32.1c0-0.9-0.7-1.6-1.6-1.6c-0.9,0-1.6,0.7-1.6,1.6v3.3
	c0,0.9,0.7,1.6,1.6,1.6c0.9,0,1.6-0.7,1.6-1.6V32.1z"/>
</svg>
