<?xml version="1.0" encoding="utf-8"?>
<!-- Generator: Adobe Illustrator 21.1.0, SVG Export Plug-In . SVG Version: 6.00 Build 0)  -->
<svg
	version="1.1"
	id="Calque_1"
	xmlns="http://www.w3.org/2000/svg"
	xmlns:xlink="http://www.w3.org/1999/xlink"
	x="0px"
	y="0px"
	viewBox="0 0 1069.4 558"
	style="enable-background:new 0 0 1069.4 558; display: block; margin: 0 auto; height: 100% !important; width: 100% !important"
	xml:space="preserve">
	<style type="text/css">
		.st0 {
			fill: #F8F9FA;
		}
		.st1 {
			fill: #BDBDBD;
		}
		.st2 {
			fill: #9E9E9E;
		}
		.st3 {
			fill: #F8F9FA;
		}

	</style>
	<g>
		<polygon
			class="st0"
			points="704.5,547.3 704.5,543.2 720.5,543.2 720.5,525.6 704.5,525.5 704.4,356.4 441.2,356.3 441.1,525.6
		425.1,525.6 425.1,543.2 441.1,543.2 441.1,547.3 10.5,547.3 10.5,543.2 26.5,543.2 26.5,526.5 10.5,526.5 10.6,484 23.9,484
		18.9,477.8 36.1,463.9 41.9,470.9 457.5,134.2 461.7,139.3 559.7,59.6 550,47.4 602,5.3 647.5,53 636.4,63.8 723.8,155.1
		728.5,150.6 1029.4,465.6 1036.1,459.4 1051.4,475.4 1042.5,484 1060.2,484 1060.2,526.4 1044.2,526.5 1044.2,543.2 1060.2,543.2
		1060.2,547.3 	"/>
		<path
			d="M601.9,6.7L646.1,53L635,63.7l88.8,92.8l4.7-4.5l300.9,315l6.7-6.2l13.9,14.6l-9.9,9.6h19.2v40.5h-15.9v18.7h16v2.1H705.5
		v-2.1h15.9v-19.6h-15.9l-0.1-169.2H440.1L440,524.7h-15.9v19.5h16v2.1H11.5v-2.1h15.9v-18.7H11.5V485H26l-5.7-7l15.6-12.7l5.9,7
		l415.6-336.7l4.2,5.1l99.6-80.9l-9.7-12.2L601.9,6.7 M602.1,4l-1.4,1.2L550.1,46l-1.5,1.3l1.2,1.6l8.5,10.6l-96.5,78.4l-2.9-3.5
		l-1.3-1.5l-1.5,1.2l-414,335.4l-4.6-5.5l-1.3-1.5l-1.5,1.2L19,476.4l-1.6,1.3l1.3,1.6l3.1,3.8H11.5h-2v2v40.5v2h2h13.9v14.7H11.5
		h-2v2v2.1v2h2H440h2v-2v-2.1v-2h-2h-14v-15.5h13.9h2v-2l0.1-167.3h261.3l0.1,167.2v2h2h13.9v15.6h-13.9h-2v2v2.1v2h2h353.7h2v-2
		v-2.1v-2h-2h-14v-14.7h13.9h2v-2V485v-2h-2h-14l6.4-6.2l1.4-1.4l-1.4-1.4l-13.9-14.6l-1.4-1.4l-1.4,1.3l-5.2,4.8L729.9,150.7
		l-1.4-1.5l-1.4,1.4l-3.2,3.1l-86-89.9l9.7-9.4L649,53l-1.4-1.4L603.4,5.3L602.1,4L602.1,4z"/>
	</g>
	<g>
		<polygon class="st1" points="31.5,542.4 31.4,521.6 15.5,521.6 15.5,489 29.9,488.9 29.9,483.6 25.8,478.5 35.3,470.8 39.9,476.4
		96.5,430.5 129.2,471.3 124,475.4 125.1,476.7 137.3,492.3 105.4,518.2 105.4,542.4 	"/>
		<path
			class="st1"
			d="M96.5,431.2l32.1,40l-4.5,3.5l-0.8,0.7l0.7,0.8l0.8,0.9l11.9,15.2l-31.4,25.4l-0.4,0.3v0.5v23.4H32v-19.8v-1
		h-1H16v-31.6h13.4h1v-1v-4.7v-0.4l-0.2-0.3l-3.7-4.6l8.7-7.1l3.9,4.8l0.6,0.8l0.8-0.6L96.5,431.2 M96.6,429.8l-56.7,46l-4.5-5.6
		l-10.3,8.3l4.3,5.3v4.7H15v33.6h15.9v20.8h74.9v-24.4l32.1-26.1l-12.5-16l-0.8-0.9l5.2-4.1L96.6,429.8L96.6,429.8z"/>
	</g>
	<g>
		<polygon class="st1" points="107.7,542.4 107.7,519.3 138.7,494.1 154.1,513 155.2,514.2 160.6,509.9 187,542.4 	"/>
		<path class="st1" d="M138.7,494.8l15,18.5l0.8,0.9l0.6,0.7l0.7-0.6l4.7-3.8l25.4,31.3h-77.8v-22.4L138.7,494.8 M138.8,493.4
		L107.2,519v23.8H188l-27.3-33.7l-5.5,4.4l-0.8-0.9L138.8,493.4L138.8,493.4z"/>
	</g>
	<g>
		<polygon class="st1" points="189.8,542.4 189.9,483.5 231.7,483.6 231.7,542.4 	"/>
		<path class="st1" d="M190.4,484h40.9v57.8h-40.9V484 M189.4,483l-0.1,59.9h42.9v-59.8L189.4,483L189.4,483z"/>
	</g>
	<g>
		<path class="st2" d="M234,542.4v-58.8l27.4,0.3c-7.2,18.4-5.7,53.9-5.5,58.6L234,542.4z"/>
		<path class="st2" d="M234.5,484.1l26.2,0.3c-3.1,8.2-4.9,20.3-5.4,36.1c-0.3,10.1,0,18.6,0.1,21.5l-20.9-0.1L234.5,484.1
		 M233.5,483.1v59.8l22.9,0.1c0,0-2.4-40.1,5.7-59.6L233.5,483.1L233.5,483.1z"/>
	</g>
	<g>
		<path class="st1" d="M261.8,542.2c-0.3-4-2.1-33.1,6.2-61.4c0.2-0.7,18.9-67.4,85.7-97.4c0.3-0.2,29.1-14.4,66.4-14.4
		c5.5,0,11.1,0.3,16.4,0.9l0.8,150.8h-17.1v21.7L261.8,542.2z"/>
		<path
			class="st1"
			d="M420.2,368.6v1l0,0c5.4,0,10.7,0.3,15.9,0.9l0.8,149.8h-16.1h-1v1V542l-157.4-0.3c-0.4-5.4-1.8-33.4,6.2-60.8
		c0-0.2,4.7-16.9,17.5-37.2c11.8-18.7,33.2-44.3,68.1-59.9c0.3-0.1,29-14.3,66.2-14.3L420.2,368.6 M420.2,368.6
		c-37.9,0-66.6,14.4-66.6,14.4c-67.8,30.4-86,97.7-86,97.7c-9.1,30.8-6.2,62-6.2,62l159.3,0.3v-21.7h17.1L437,369.6
		C431.3,368.9,425.6,368.6,420.2,368.6L420.2,368.6z"/>
	</g>
	<g>
		<polygon class="st2" points="198,462.4 188,450.1 247.2,402.1 247.9,403.1 246.1,404.6 262.5,424.8 262.5,441.5 236.8,462.4 	"/>
		<path class="st2" d="M247.1,402.8l0.1,0.2l-1.1,0.9l-0.8,0.6l0.6,0.8l16,19.7v16.3l-25.4,20.5H198l-9.4-11.7L247.1,402.8
		 M247.3,401.4l-59.9,48.7l10.4,12.8H237l26-21.1v-17.1l-16.2-20l1.8-1.5L247.3,401.4L247.3,401.4z"/>
	</g>
	<g>
		<polygon class="st2" points="256.6,394.5 346.9,321.4 353.5,329.4 353.5,364.1 348.4,364.1 278.1,421 	"/>
		<path class="st2" d="M346.8,322.1l6.1,7.6v34h-4.4h-0.4l-0.3,0.2L278,420.4l-20.9-25.7L346.8,322.1 M347,320.7l-91.1,73.8
		l22.1,27.2l70.5-57.1h5.4v-35.4L347,320.7L347,320.7z"/>
	</g>
	<g>
		<polygon class="st2" points="372.9,329.8 437.4,329.8 437.4,357.5 372.8,357.5 	"/>
		<path class="st2" d="M436.9,330.3V357l-63.6,0.1l0.1-26.7h63.5 M437.9,329.3h-65.5l-0.1,28.7l65.6-0.1V329.3L437.9,329.3z"/>
	</g>
	<g>
		<polygon class="st1" points="98.1,429.3 145.1,390.9 178,431.6 131,469.7 	"/>
		<path class="st1" d="M145.1,391.6l32.3,39.9L131,469l-32.2-39.7L145.1,391.6 M145.2,390.2l-47.8,39l33.5,41.2l47.8-38.8
		L145.2,390.2L145.2,390.2z"/>
	</g>
	<g>
		<polygon class="st1" points="146.9,389.7 209.7,338.8 242.4,379.5 179.9,430.2 	"/>
		<path class="st1" d="M209.6,339.5l32.1,39.9l-61.8,50.1l-32.3-39.7L209.6,339.5 M209.8,338.1l-63.6,51.6l33.6,41.2l63.3-51.3
		L209.8,338.1L209.8,338.1z"/>
	</g>
	<g>
		<polygon class="st1" points="211.3,337.5 274.1,286.6 306.9,327.3 244.2,378 	"/>
		<path class="st1" d="M274,287.3l32.1,39.9l-61.9,50.1L212,337.6L274,287.3 M274.2,285.9l-63.6,51.6l33.6,41.3l63.4-51.4
		L274.2,285.9L274.2,285.9z"/>
	</g>
	<g>
		<polygon class="st1" points="275.8,285.3 352.3,223 352.3,290.4 308.6,325.7 	"/>
		<path class="st1" d="M351.8,224.1v66.1L308.7,325l-32.2-39.7L351.8,224.1 M352.8,222l-77.7,63.2l33.5,41.2l44.2-35.8V222L352.8,222
		z"/>
	</g>
	<g>
		<polygon class="st2" points="429.5,160.7 452.4,142.1 490.2,189.2 467.2,207.3 	"/>
		<path class="st2" d="M452.3,142.8l37.2,46.4l-22.2,17.4l-37.1-45.8L452.3,142.8 M452.4,141.4l-23.6,19.2l38.3,47.4l23.8-18.7
		L452.4,141.4L452.4,141.4z"/>
	</g>
	<g>
		<polygon class="st2" points="442.8,271.2 436.6,263.6 565.7,158.9 613.6,158.9 714.2,264.2 707,271.2 	"/>
		<path class="st2" d="M613.4,159.4l100.2,104.8l-6.8,6.5H443l-5.7-7l128.6-104.2h47.5 M613.8,158.4h-48.2L435.9,263.5l6.6,8.2h264.7
		l7.8-7.4L613.8,158.4L613.8,158.4z"/>
	</g>
	<g>
		<polygon class="st2" points="565.9,133.1 557.5,133.1 557.2,105 627.9,104.9 627.9,133.1 619.2,133.3 619.2,139.7 565.9,140 	"/>
		<path class="st2" d="M627.4,105.4v27.2l-7.7,0.2h-1v1v5.5l-52.3,0.3v-5.9v-1h-1H558l-0.2-27L627.4,105.4 M628.4,104.4l-71.7,0.1
		l0.2,29h8.4v6.9l54.3-0.3v-6.5l8.7-0.2L628.4,104.4L628.4,104.4z"/>
	</g>
	<g>
		<path class="st1" d="M440.5,352.7h-0.8v-43.8c1.3-0.9,7.5-5.9,13.5-16.6h2.5l0.1,61.1h-15.2L440.5,352.7z"/>
		<g>
			<path class="st1" d="M455.2,292.7l0.1,60.1h-14.2l-0.1-0.6h-0.8v-43.1c1.6-1.3,7.6-6.2,13.3-16.4H455.2 M456.2,291.7h-3.3
			c-6.6,12-13.7,16.9-13.7,16.9v44.6h0.9l0.1,0.6h16.1L456.2,291.7L456.2,291.7z"/>
		</g>
	</g>
	<g>
		<polygon class="st1" points="457.7,353.4 457.7,292.2 512.4,292.2 512.4,346.1 505.4,346.2 505.4,353.5 	"/>
		<g>
			<path class="st1" d="M511.9,292.7v52.9l-6,0.1h-1v1v6.3l-46.7-0.1v-60.2h16.7L511.9,292.7 M512.9,291.7h-38h-17.7v62.2l48.7,0.1
			v-7.3l7-0.1V291.7L512.9,291.7z"/>
		</g>
	</g>
	<g>
		<polygon class="st1" points="507.4,353.3 507.5,348.1 514.6,348.2 514.7,292.2 604.8,292.2 604.8,353.4 	"/>
		<g>
			<path class="st1" d="M604.3,292.7v60.2l-96.4-0.1l0.1-4.1h6.1h1v-1v-55H604.3 M605.3,291.7h-91.1v56h-7.1l-0.1,6.1l98.4,0.1v-62.2
			H605.3z"/>
		</g>
	</g>
	<g>
		<polygon class="st1" points="606.9,353.3 607,292.1 638,292.1 638,353.4 	"/>
		<g>
			<path class="st1" d="M637.5,292.6v60.2l-30.1-0.1l0.1-60.1H637.5 M638.5,291.6h-32l-0.1,62.1l32.1,0.1V291.6L638.5,291.6z"/>
		</g>
	</g>
	<g>
		<polygon class="st1" points="640.1,347.8 640.2,292.1 715.1,292.2 736.9,271.1 761.9,297.2 708.8,347.9 	"/>
		<g>
			<path class="st1" d="M736.8,271.8l24.3,25.4l-52.6,50.3l-67.9-0.1l0.1-54.7l74.1,0.1h0.4l0.3-0.3L736.8,271.8 M736.9,270.4
			l-22,21.3l-75.1-0.1l-0.1,56.7l69.3,0.1l53.6-51.2L736.9,270.4L736.9,270.4z"/>
		</g>
	</g>
	<g>
		<polygon class="st1" points="716.2,218 753.6,181.4 775.2,203.6 737.8,240.1 	"/>
		<g>
			<path class="st1" d="M753.6,182.1l20.9,21.4l-36.7,35.9L716.9,218L753.6,182.1 M753.6,180.7L715.5,218l22.3,22.8l38.2-37.3
			L753.6,180.7L753.6,180.7z"/>
		</g>
	</g>
	<g>
		<polygon class="st1" points="739.4,241.8 776.7,205.2 820.6,251 782.8,287.3 	"/>
		<g>
			<path class="st1" d="M776.7,205.9l43.2,45.1l-37.1,35.5L740,241.8L776.7,205.9 M776.7,204.5l-38.1,37.3l44.1,46.2l38.5-36.9
			L776.7,204.5L776.7,204.5z"/>
		</g>
	</g>
	<g>
		<polygon class="st1" points="786.1,290.6 823.7,254.5 901.2,335.7 863.6,371.7 	"/>
		<g>
			<path class="st1" d="M823.7,255.2l76.8,80.4l-36.9,35.3l-76.8-80.3L823.7,255.2 M823.7,253.8l-38.3,36.7l78.2,81.8l38.3-36.7
			L823.7,253.8L823.7,253.8z"/>
		</g>
	</g>
	<g>
		<polygon class="st2" points="732.1,370.9 716.2,354.2 715,353.8 710.9,353.8 765.1,302 798.8,337.3 786.2,349.3 781.1,344
		763.1,361.2 763.1,370.9 	"/>
		<path
			class="st2"
			d="M765.1,302.7l33,34.6l-11.8,11.4l-4.4-4.6l-0.7-0.7l-0.7,0.7L763,360.8l-0.3,0.3v0.4v9h-30.3l-15.7-16.4
		l-0.2-0.2l-0.3-0.1l-1-0.3h-0.1H715h-2.7L765.1,302.7 M765.1,301.3l-55.4,53.1h5.2l1,0.3l16,16.8h31.7v-10l17.5-16.7l5.1,5.3
		l13.3-12.7L765.1,301.3L765.1,301.3z"/>
	</g>
	<g>
		<polygon class="st1" points="707.5,372.8 771,372.8 770.9,437.1 707.5,437.3 	"/>
		<g>
			<path class="st1" d="M770.5,373.3l-0.1,63.3l-62.5,0.2v-63.4L770.5,373.3 M771.5,372.3H707v65.5l64.5-0.2V372.3L771.5,372.3z"/>
		</g>
	</g>
	<g>
		<polygon class="st1" points="865.1,373.2 902.6,337.3 958.3,395.4 920.5,431.6 	"/>
		<g>
			<path class="st1" d="M902.6,338.1l55,57.3l-37.1,35.5l-54.8-57.6L902.6,338.1 M902.7,336.6l-38.3,36.6l56.1,59.1l38.6-36.9
			L902.7,336.6L902.7,336.6z"/>
		</g>
	</g>
	<g>
		<polygon class="st2" points="794.2,372.8 814.5,353.4 839.7,380 912.2,455.9 907.8,460.1 794.2,460.2 	"/>
		<path class="st2" d="M814.5,354.2l24.8,26.2l72.2,75.5l-3.9,3.7l-112.9,0.1v-86.6L814.5,354.2 M814.6,352.7l-20.8,19.9v88
		l114.3-0.1l4.9-4.7l-73-76.1L814.6,352.7L814.6,352.7z"/>
	</g>
	<g>
		<polygon class="st1" points="725.4,542.4 725.4,520.6 708.1,520.7 707.5,439.2 771,439.3 771,467.6 773.2,467.6 773.2,463.3
		791.5,463.3 901,463.4 901,482.3 889.7,482.4 889.6,542.4 	"/>
		<g>
			<path class="st1" d="M708,439.7l62.5,0.1v27.3v1h1h1.2h1v-1v-3.2h0.2h17.5h109v17.9h-10.3h-1v1v59H725.9V521v-1h-1h-16.3
			L708,439.7 M707,438.7l0.7,82.5h17.2V543h165.2v-60h11.3v-19.9h-110H774h-1.2v4.2h-1.2V439L707,438.7L707,438.7z"/>
		</g>
	</g>
	<g>
		<polygon class="st1" points="931.3,424.5 959.8,397.1 981.4,419.8 952.9,447 	"/>
		<g>
			<path class="st1" d="M959.8,397.8l20.8,22l-27.8,26.5L932,424.6L959.8,397.8 M959.9,396.4l-29.3,28.1l22.3,23.2l29.2-27.9
			L959.9,396.4L959.9,396.4z"/>
		</g>
	</g>
	<g>
		<polygon class="st1" points="988.6,484.4 954.3,448.5 982.9,421.1 1029.1,469.7 1000.6,497 	"/>
		<g>
			<path class="st1" d="M982.8,421.8l45.5,47.9l-27.8,26.5L989,484.1l-34-35.6L982.8,421.8 M982.9,420.4l-29.3,28l34.7,36.4
			l12.3,12.9l29.2-27.9L982.9,420.4L982.9,420.4z"/>
		</g>
	</g>
	<g>
		<polygon class="st1" points="891.9,542.4 891.9,484.6 957.6,484.6 951,491 966.3,506.9 975.2,498.5 983,506.7 974.5,514.9
		1000.7,542.4 	"/>
		<g>
			<path
				class="st1"
				d="M956.3,485.1l-5.3,5.1l-0.7,0.7l0.7,0.7l14.6,15.2l0.7,0.7l0.7-0.7l8.2-7.7l7.2,7.5l-7.8,7.5l-0.7,0.7
			l0.7,0.7l25,26.3H892.4V485L956.3,485.1 M958.8,484.1L958.8,484.1L958.8,484.1z M958.8,484.1h-67.4v58.8h110.4l-26.7-28l8.5-8.2
			l-8.5-8.9l-8.9,8.4L951.7,491L958.8,484.1L958.8,484.1z"/>
		</g>
	</g>
	<g>
		<polygon class="st2" points="1003.7,542.4 977.6,515 984.9,508 1008.1,532.3 1023.3,532.3 1023.4,517.7 1039.5,517.7 1039.5,542.4
			"/>
		<path class="st2" d="M984.9,508.7l22.8,23.8l0.3,0.3h0.4h14.4h1v-1l0.1-13.7h15.1v23.7h-35L978.3,515L984.9,508.7 M984.9,507.3
		l-8.1,7.6l26.7,27.9h36.5v-25.7h-17.1l-0.1,14.7h-14.4L984.9,507.3L984.9,507.3z"/>
	</g>
	<g class="codec" id="10-1-110-125">
		<circle class="st3" cx="718" cy="177" r="5"/>
	</g>
	<g class="codec" id="10-1-110-145">
		<circle class="st3" cx="170" cy="465" r="5"/>
	</g>
	<g class="codec" id="10-1-110-134">
		<circle class="st3" cx="495" cy="147" r="5"/>
	</g>
</svg>
