<svg xmlns="http://www.w3.org/2000/svg" viewBox="0 0 1024 1024"><title>Artboard 1</title><g style="isolation:isolate"><g id="Layer_1" data-name="Layer 1"><rect width="1024" height="1024" style="fill:none"/><path d="M967.06,442.68,725.2,437.29l51-51.75c21-21.33,28-61,15.42-88.24l-39.68-86.11c-12.53-27.2-39.79-31.81-60.57-10.24l-80.57,83.61,1.3-154c.25-29.95-21.87-44.35-49.16-32l-90.09,40.74c-27.29,12.34-50,46.94-50.43,76.89l-1.1,73.28L252.25,100.85c-20-22.3-46.32-18.18-58.52,9.18l-36.82,82.56c-12.21,27.35-5.75,67.91,14.33,90.13l131.2,145.17-62.2-1.38c-29.94-.66-65.57,20.62-79.18,47.29l-41.59,81.52c-13.61,26.67-.26,49.37,29.67,50.43l147.13,5.2L164.36,747.82c-20.78,21.57-14.44,46.7,14.07,55.85l89.29,28.65c28.51,9.15,69-.82,90.06-22.15l56.56-57.4L411.6,935.21c-.45,29.94,22.67,47.49,51.4,39l90.1-26.68c28.72-8.5,52.42-40,52.67-69.91l1-113,83.69,92.6c20.08,22.22,49.3,19.5,64.94-6l40.27-65.81c15.63-25.55,12.07-64.69-7.91-87L722.93,626l162.77,5.75c29.94,1.06,64.08-20.59,75.88-48.12L1000,493.94C1011.84,466.41,997,443.34,967.06,442.68Z" style="fill:#fff"/><g style="mix-blend-mode:multiply"><path d="M961.58,583.65c-11.81,27.53-45.94,49.18-75.88,48.12l-736.57-26c-29.93-1.06-43.28-23.75-29.67-50.43l41.59-81.52c13.61-26.67,49.24-48,79.18-47.29l726.82,16.18c29.94.66,44.78,23.73,33,51.26Z" style="fill:#0c99d5"/></g><g style="mix-blend-mode:multiply"><path d="M605.77,877.61c-.26,29.95-24,61.41-52.67,69.91L463,974.2c-28.72,8.5-51.85-9-51.4-39l10.83-719c.45-29.94,23.14-64.54,50.43-76.89l90.09-40.74c27.29-12.34,49.41,2.07,49.16,32Z" style="fill:#d0d1d0"/></g><g style="mix-blend-mode:multiply"><path d="M755.35,851.12c-15.63,25.55-44.86,28.26-64.94,6L171.23,282.71c-20.08-22.22-26.53-62.77-14.33-90.13L193.73,110c12.21-27.35,38.54-31.48,58.52-9.18L787.72,698.31c20,22.3,23.55,61.45,7.91,87Z" style="fill:#a9dff3"/></g><g style="mix-blend-mode:multiply"><path d="M791.61,297.3c12.54,27.2,5.59,66.91-15.42,88.24L357.78,810.16c-21,21.33-61.55,31.3-90.06,22.15l-89.29-28.65c-28.51-9.15-34.85-34.28-14.07-55.85l527-546.87c20.78-21.57,48-17,60.57,10.24Z" style="fill:#74be45"/></g></g></g></svg>